<?xml version="1.0" encoding="UTF-8"?>
<svg id="linkedin" xmlns="http://www.w3.org/2000/svg" width="64.16" height="64.54" viewBox="0 0 64.16 64.54">
  <defs>
    <style>
      .cls-1 {
        fill: #303030;
      }
    </style>
  </defs>
  <path class="cls-1" d="M9.08,24.33h9.85v31.04h-9.85v-31.04ZM14.01,8.9c3.15,0,5.7,2.51,5.7,5.59s-2.55,5.6-5.7,5.6-5.71-2.51-5.71-5.6,2.55-5.59,5.71-5.59"/>
  <path class="cls-1" d="M25.11,24.33h9.44v4.25h.13c1.32-2.44,4.52-5.01,9.32-5.01,9.96,0,11.8,6.42,11.8,14.78v17.02h-9.83v-15.09c0-3.6-.07-8.23-5.11-8.23s-5.9,3.92-5.9,7.97v15.35h-9.83v-31.04Z"/>
</svg>