<?xml version="1.0" encoding="UTF-8"?>
<svg id="github" xmlns="http://www.w3.org/2000/svg" width="64.16" height="64.54" viewBox="0 0 64.16 64.54">
  <path d="M25.72,57.75c0-.71.96-2,.17-9.07-8.51,1.84-10.28-3.67-10.28-3.67-1.37-3.57-3.39-4.49-3.39-4.49-2.78-1.89.2-1.89.2-1.89,3.09.2,4.71,3.16,4.71,3.16,2.73,4.69,7.14,3.37,8.91,2.55.25-1.99,1.06-3.37,1.92-4.13-6.79-.71-13.92-3.37-13.92-15.2,0-3.37,1.21-6.12,3.14-8.26-.3-.77-1.37-3.93.3-8.16,0,0,2.58-.82,8.41,3.16,2.49-.67,5.06-1.02,7.65-1.02,2.58,0,5.21.36,7.65,1.02,5.82-3.98,8.41-3.16,8.41-3.16,1.67,4.23.61,7.4.3,8.16,1.98,2.14,3.14,4.9,3.14,8.26,0,11.84-7.14,14.44-13.98,15.2,1.11.97,2.08,2.81,2.08,5.71,0,4.13-.71,11.09,0,11.82"/>
</svg>